<?xml version="1.0" encoding="utf-8"?>
<!-- Generator: Adobe Illustrator 27.4.1, SVG Export Plug-In . SVG Version: 6.00 Build 0)  -->
<svg version="1.1" id="Layer_2_00000157269859155738072370000012729322753422175622_"
	 xmlns="http://www.w3.org/2000/svg" xmlns:xlink="http://www.w3.org/1999/xlink" x="0px" y="0px" viewBox="0 0 14.8 14.8"
	 style="enable-background:new 0 0 14.8 14.8;" xml:space="preserve">
<style type="text/css">
	.st0{fill:#F00000;}
	.st1{fill:#FFFFFF;}
</style>
<g>
	<polygon class="st0" points="7.4,10.5 3.8,14.1 0.7,11 4.3,7.4 0.7,3.8 3.8,0.7 7.4,4.3 11,0.7 14.1,3.8 10.5,7.4 14.1,11 11,14.1 
			"/>
	<path class="st1" d="M11,1.4l2.4,2.4L9.8,7.4l3.6,3.6L11,13.4L7.4,9.8l-3.6,3.6L1.4,11L5,7.4L1.4,3.8l2.4-2.4L7.4,5L11,1.4 M11,0
		l-0.7,0.7L7.4,3.6L4.5,0.7L3.8,0L3.1,0.7L0.7,3.1L0,3.8l0.7,0.7l2.9,2.9l-2.9,2.9L0,11l0.7,0.7l2.4,2.4l0.7,0.7l0.7-0.7l2.9-2.9
		l2.9,2.9l0.7,0.7l0.7-0.7l2.4-2.4l0.7-0.7l-0.7-0.7l-2.9-2.9l2.9-2.9l0.7-0.7l-0.7-0.7l-2.4-2.4L11,0L11,0z"/>
</g>
</svg>
